<svg xmlns="http://www.w3.org/2000/svg" viewBox="0 0 24 24">
  <path d="M23.954 4.57c-.885.388-1.83.653-2.825.774 1.01-.61 1.79-1.574 2.16-2.723-.95.56-2.008.96-3.13 1.19-.896-.96-2.173-1.56-3.59-1.56-2.718 0-4.92 2.204-4.92 4.918 0 .39.044.765.126 1.124-4.09-.195-7.713-2.16-10.14-5.13C1.21 3.885.97 4.724.97 5.638c0 1.71.87 3.213 2.19 4.096-.808-.026-1.567-.248-2.23-.616v.06c0 2.386 1.694 4.375 3.947 4.828-.413.11-.85.17-1.296.17-.312 0-.613-.03-.914-.085.63 1.95 2.445 3.374 4.604 3.414-1.68 1.32-3.81 2.105-6.103 2.105-.39 0-.78-.024-1.17-.068 2.19 1.396 4.768 2.21 7.557 2.21 9.054 0 14-7.495 14-13.985 0-.21 0-.42-.016-.63.963-.69 1.8-1.56 2.46-2.548l-.045-.02z"/>
</svg>
